# xmcd
#
# Track frame offsets:
#	150
#	15192
#	28706
#	47375
#	72444
#	89637
#	110757
#	131240
#	162202
#	175238
#
# Disc length: 2612 seconds
#
# Revision: 1
# Processed by: cddbd v1.5.2PL0 Copyright (c) Steve Scherf et al.
# Submitted via: audiograbber 1.83.01
#
DISCID=810a320a
DTITLE=Sgt. Slaughters Chickenfarm - Live im Ducsaal
DYEAR=2005
DGENRE=Blues
TTITLE0=Whiskey man
TTITLE1=Mary had a little lamb
TTITLE2=The illustrated man
TTITLE3=All your love (I miss lovin)
TTITLE4=Outward bound
TTITLE5=The needle and the spoon
TTITLE6=Philby
TTITLE7=This note's for you
TTITLE8=Let me love you
TTITLE9=Self destructive blues
EXTD=
EXTT0=
EXTT1=
EXTT2=
EXTT3=
EXTT4=
EXTT5=
EXTT6=
EXTT7=
EXTT8=
EXTT9=
PLAYORDER=
